<svg xmlns="http://www.w3.org/2000/svg" viewBox="0 0 40 40"><path d="M32,20A12,12,0,0,1,8.52,23.5l4.54,1.87a3.32,3.32,0,0,0,6.32.56,3.41,3.41,0,0,0,.26-1.37l4.2-3h.1A4.57,4.57,0,1,0,19.38,17v.06l-2.93,4.27a3.43,3.43,0,0,0-2,.54L8,19.21H8A12,12,0,0,1,32,20ZM15.48,26.38,14,25.76a2.56,2.56,0,0,0,4.68-.12h0a2.59,2.59,0,0,0,0-2,2.54,2.54,0,0,0-1.38-1.39,2.5,2.5,0,0,0-1.9,0l1.54.63a1.9,1.9,0,0,1-1.46,3.5ZM23.94,20A3,3,0,1,1,27,17,3.05,3.05,0,0,1,23.94,20Zm0-.77A2.29,2.29,0,1,0,21.66,17,2.29,2.29,0,0,0,23.94,19.27Z"/></svg>